# AST/ASF file generated using VICON BodyLanguage
# -----------------------------------------------
:version 1.10
:name VICON
:units
  mass 1.0
  length 0.45
  angle deg
:documentation
   .ast/.asf automatically generated from VICON data using
   VICON BodyBuilder and BodyLanguage model FoxedUp or BRILLIANT.MOD
:root
   order TX TY TZ RX RY RZ
   axis XYZ
   position 0 0 0  
   orientation 0 0 0 
:bonedata
  begin
     id 1 
     name lhipjoint
     direction 0.62366 -0.717238 0.310833 
     length 2.53602 
     axis 0 0 0  XYZ
  end
  begin
     id 2 
     name lfemur
     direction 0.34202 -0.939693 0  
     length 7.40817  
     axis 0 0 20  XYZ
    dof rx ry rz
    limits (-160.0 20.0)
           (-70.0 70.0)
           (-60.0 70.0)
  end
  begin
     id 3 
     name ltibia
     direction 0.34202 -0.939693 0   
     length 7.7045   
     axis 0 0 20   XYZ
    dof rx
    limits (-10.0 170.0)
  end
  begin
     id 4 
     name lfoot
     direction 0.0673888 -0.185149 0.980397   
     length 2.09456   
     axis -90 7.62852e-016 20   XYZ
    dof rx rz
    limits (-45.0 90.0)
           (-70.0 20.0)
  end
  begin
     id 5 
     name ltoes
     direction 1.53575e-011 -4.21994e-011 1   
     length 1.05543   
     axis -90 7.62852e-016 20   XYZ
    dof rx
    limits (-90.0 20.0)
  end
  begin
     id 6 
     name rhipjoint
     direction -0.489018 -0.800347 0.346851   
     length 2.27268  
     axis 0 0 0  XYZ 
  end
  begin
     id 7 
     name rfemur
     direction -0.34202 -0.939693 0   
     length 7.55487   
     axis 0 0 -20   XYZ
    dof rx ry rz
    limits (-160.0 20.0)
           (-70.0 70.0)
           (-70.0 60.0)
  end
  begin
     id 8 
     name rtibia
     direction -0.34202 -0.939693 0   
     length 7.78969   
     axis 0 0 -20   XYZ
    dof rx
    limits (-10.0 170.0)
 end
 begin
     id 9 
     name rfoot
     direction -0.0859318 -0.236096 0.967923   
     length 2.19143  
     axis -90 -7.62852e-016 -20   XYZ
    dof rx rz
    limits (-45.0 90.0)
           (-20.0 70.0)
  end
  begin
     id 10 
     name rtoes
     direction -1.53538e-011 -4.21989e-011 1   
     length 1.09845   
     axis -90 -7.62852e-016 -20   XYZ
    dof rx
    limits (-90.0 20.0)
  end
  begin
     id 11 
     name lowerback
     direction -0.00762546 0.998978 -0.0445553   
     length 1.98161   
     axis 0 0 0   XYZ
    dof rx ry rz
    limits (-20.0 45.0)
           (-30.0 30.0)
           (-30.0 30.0)
  end
  begin
     id 12 
     name upperback
     direction 0.0422361 0.998867 -0.0219156   
     length 1.97558   
     axis 0 0 0   XYZ
    dof rx ry rz
    limits (-20.0 45.0)
           (-30.0 30.0)
           (-30.0 30.0)
  end
  begin
     id 13 
     name thorax
     direction 0.0442465 0.999021 7.47603e-005   
     length 1.97799   
     axis 0 0 0   XYZ
    dof rx ry rz
    limits (-20.0 45.0)
           (-30.0 30.0)
           (-30.0 30.0)
  end
  begin
     id 14 
     name lowerneck
     direction 0.00312169 0.984641 0.174564   
     length 1.78995   
     axis 0 0 0   XYZ
    dof rx ry rz
    limits (-20.0 45.0)
           (-30.0 30.0)
           (-30.0 30.0)
  end
  begin
     id 15 
     name upperneck
     direction -0.0383028 0.985255 -0.166749   
     length 1.83053   
     axis 0 0 0   XYZ
    dof rx ry rz
    limits (-20.0 45.0)
           (-30.0 30.0)
           (-30.0 30.0)
  end
  begin
     id 16
     name head
     direction -0.0129546 0.997059 -0.0755386  
     length 1.84088  
     axis 0 0 0   XYZ
    dof rx ry rz
    limits (-20.0 45.0)
           (-30.0 30.0)
           (-30.0 30.0)
  end
  begin
     id 17 
     name lclavicle
     direction 0.912857 0.370519 -0.171488  
     length 3.51279  
     axis 0 0 0   XYZ
    dof ry rz
    limits (-20.0 10.0)
           (0.0 20.0)
  end
  begin
     id 18 
     name lhumerus
     direction 1 -4.48962e-011 3.64361e-027   
     length 4.95663   
     axis 180 -30 -90   XYZ
    dof rx ry rz
    limits (-60.0 90.0)
           (-90.0 90.0)
           (-90.0 90.0)
  end
  begin
     id 19
     name lradius
     direction 1 -4.48974e-011 5.97202e-027   
     length 3.38177   
     axis 180 -30 -90   XYZ
    dof rx
    limits (-10.0 170.0)
  end
  begin
     id 20
     name lwrist
     direction 1 -4.4896e-011 9.83288e-027   
     length 1.69088   
     axis -9.31221e-015 90 90   XYZ
    dof ry
    limits (-180.0 0.0)
 end
  begin
     id 21 
     name lhand
     direction 1 -4.4902e-011 1.96551e-026   
     length 0.662909   
     axis -1.25475e-014 90 90   XYZ
    dof rx rz
    limits (-90.0 90.0)
           (-45.0 45.0)
  end
  begin
     id 22 
     name lfingers
     direction 1 -4.48971e-011 3.93277e-026   
     length 0.534454   
     axis -2.50945e-014 90 90   XYZ
    dof rx
    limits (0.0 90.0)
  end
  begin
     id 23
     name lthumb
     direction 0.707107 -6.34933e-011 0.707107   
     length 0.767373   
     axis -90 45 -4.80359e-014   XYZ
    dof rx rz
    limits (-45.0 45.0)
           (-45.0 45.0)
  end
  begin
     id 24 
     name rclavicle
     direction -0.900919 0.395364 -0.178976   
     length 3.40627  
     axis 0 0 0   XYZ 
    dof ry rz
    limits (-10.0 20.0)
           (-20.0 0.0)
  end
  begin
     id 25 
     name rhumerus
     direction -1 -4.48969e-011 1.03875e-027  
     length 5.08365   
     axis 180 30 90   XYZ
    dof rx ry rz
    limits (-90.0 60.0)
           (-90.0 90.0)
           (-90.0 90.0)
  end
  begin
     id 26 
     name rradius
     direction -1 -4.48951e-011 5.02733e-027   
     length 3.35984   
     axis 180 30 90   XYZ
    dof rx
    limits (-10.0 170.0)
  end
  begin
     id 27 
     name rwrist
     direction -1 -4.49011e-011 9.82828e-027   
     length 1.67992   
     axis -9.31221e-015 -90 -90   XYZ
    dof ry
    limits (-180.0 0.0)
  end
  begin
     id 28
     name rhand
     direction -1 -4.48894e-011 1.96774e-026   
     length 0.820764   
     axis -1.25475e-014 -90 -90   XYZ
    dof rx rz
    limits (-90.0 90.0)
           (-45.0 45.0)
  end
  begin
     id 29
     name rfingers
     direction -1 -4.49095e-011 3.92833e-026   
     length 0.661721   
     axis -2.50945e-014 -90 -90   XYZ
    dof rx
    limits (0.0 90.0)
  end
  begin
     id 30
     name rthumb
     direction -0.707107 -6.34881e-011 0.707107   
     length 0.950103   
     axis -90 -45 4.80359e-014   XYZ
    dof rx rz
    limits (-45.0 45.0)
           (-45.0 45.0)
  end
:hierarchy
  begin
    root lhipjoint rhipjoint lowerback
    lhipjoint lfemur
    lfemur ltibia
    ltibia lfoot
    lfoot ltoes
    rhipjoint rfemur
    rfemur rtibia
    rtibia rfoot
    rfoot rtoes
    lowerback upperback
    upperback thorax
    thorax lowerneck lclavicle rclavicle
    lowerneck upperneck
    upperneck head
    lclavicle lhumerus
    lhumerus lradius
    lradius lwrist
    lwrist lhand lthumb
    lhand lfingers
    rclavicle rhumerus
    rhumerus rradius
    rradius rwrist
    rwrist rhand rthumb
    rhand rfingers
  end

#!OML:ASF I:\golf\golf\golf 2\Subject 1\2002-09-07\Subject1.ASF
:FULLY-SPECIFIED
:DEGREES
71
root -7.08411 17.6409 1.94046 -68.1349 87.171 -84.0513
lowerback 1.5538 1.87993 -1.76251
upperback 1.99943 2.54167 4.23497
thorax 0.916754 1.25682 5.34145
lowerneck -13.9626 -2.0888 1.26723
upperneck 42.2268 0.618387 -4.14493
head 18.1389 0.603012 -1.82979
rclavicle -1.55052e-014 5.56597e-015
rhumerus -6.23614 -0.607395 -102.115
rradius 21.2261
rwrist -38.8522
rhand -13.7842 -11.6796
rfingers 7.12502
rthumb 12.3372 -41.2956
lclavicle -1.55052e-014 5.56597e-015
lhumerus -7.91811 -34.1683 107.961
lradius 23.3231
lwrist 40.5045
lhand -7.34735 71.2915
lfingers 7.12502
lthumb -161.463 79.5717
rfemur -30.2898 -2.70154 10.3441
rtibia 31.4381
rfoot -10.502 -7.9727
rtoes -6.80491
lfemur -29.6146 8.19795 -8.56156
ltibia 32.518
lfoot -13.6285 -2.99638
ltoes -21.6705
72
root -7.08295 17.6409 1.93922 -67.1616 87.1339 -83.0469
lowerback 1.59466 1.92245 -1.74658
upperback 1.99765 2.59908 4.23782
thorax 0.886486 1.28654 5.33278
lowerneck -13.9569 -2.12925 1.27081
upperneck 42.2627 0.559932 -4.14042
head 18.1558 0.583101 -1.83962
rclavicle 3.4191e-014 1.51076e-014
rhumerus -6.20697 -0.771241 -102.123
rradius 21.1337
rwrist -38.3763
rhand -13.8416 -11.7171
rfingers 7.12502
rthumb 12.2818 -41.3364
lclavicle 3.4191e-014 1.51076e-014
lhumerus -7.87986 -33.6822 108.025
lradius 23.058
lwrist 39.086
lhand -7.72502 71.7298
lfingers 7.12502
lthumb -161.827 79.0992
rfemur -30.2714 -2.72525 10.377
rtibia 31.441
rfoot -10.4839 -7.94816
rtoes -7.44242
lfemur -29.5709 8.29031 -8.55473
ltibia 32.5258
lfoot -13.6095 -3.05402
ltoes -21.2834
73
root -7.08327 17.6405 1.93988 -66.2077 87.1276 -82.082
lowerback 1.60732 1.93931 -1.78351
upperback 2.0032 2.62128 4.24253
thorax 0.880993 1.29729 5.35803
lowerneck -13.9512 -2.15032 1.2573
upperneck 42.2649 0.53862 -4.1549
head 18.1546 0.570672 -1.84789
rclavicle -3.10104e-014 5.56597e-015
rhumerus -6.19582 -0.626156 -102.138
rradius 21.1308
rwrist -38.1768
rhand -13.9768 -11.9181
rfingers 7.12502
rthumb 12.1515 -41.5451
lclavicle -3.10104e-014 5.56597e-015
lhumerus -7.88868 -33.6387 108.07
lradius 22.9686
lwrist 38.408
lhand -8.17787 72.0412
lfingers 7.12502
lthumb -162.262 78.7478
rfemur -30.276 -2.69877 10.3731
rtibia 31.4458
rfoot -10.4482 -7.96927
rtoes -7.7921
lfemur -29.5473 8.34991 -8.56879
ltibia 32.527
lfoot -13.6265 -3.07207
ltoes -21.0456
74
root -7.08403 17.6398 1.93925 -66.4401 87.1279 -82.3548
lowerback 1.56102 1.91764 -1.79752
upperback 2.0036 2.59236 4.26223
thorax 0.90899 1.28211 5.38899
lowerneck -13.9564 -2.12237 1.22799
upperneck 42.2535 0.588271 -4.15132
head 18.1522 0.585418 -1.83158
rclavicle 5.1684e-015 -2.38542e-014
rhumerus -6.21743 -0.139128 -102.137
rradius 21.1951
rwrist -38.2056
rhand -14.2333 -12.173
rfingers 7.12502
rthumb 11.9042 -41.8146
lclavicle 5.1684e-015 -2.38542e-014
lhumerus -7.93828 -33.8692 108.162
lradius 22.9944
lwrist 38.2812
lhand -8.33608 72.007
lfingers 7.12502
lthumb -162.415 78.7683
rfemur -30.3251 -2.71986 10.3786
rtibia 31.4552
rfoot -10.3934 -7.97402
rtoes -8.28988
lfemur -29.594 8.30643 -8.56496
ltibia 32.5208
lfoot -13.6491 -3.01618
ltoes -21.1785
75
root -7.08412 17.639 1.93775 -66.7759 87.0985 -82.7076
lowerback 1.56746 1.93058 -1.75394
upperback 1.98991 2.6105 4.26606
thorax 0.891001 1.29236 5.36726
lowerneck -13.9958 -2.11439 1.22019
upperneck 42.3188 0.58931 -4.0936
head 18.2022 0.5948 -1.80453
rclavicle -1.55052e-014 -7.95139e-015
rhumerus -6.22152 -0.0228854 -102.125
rradius 21.2346
rwrist -38.0565
rhand -14.2195 -12.4414
rfingers 7.12502
rthumb 11.9175 -42.0822
lclavicle -1.55052e-014 -7.95139e-015
lhumerus -8.05424 -34.1432 108.318
lradius 23.0283
lwrist 38.07
lhand -8.35847 72.0063
lfingers 7.12502
lthumb -162.436 78.7671
rfemur -30.3513 -2.74068 10.4095
rtibia 31.4681
rfoot -10.4307 -7.909
rtoes -7.87359
lfemur -29.6362 8.28278 -8.53456
ltibia 32.5151
lfoot -13.6604 -2.97419
ltoes -21.4634
76
root -7.08484 17.639 1.93676 -67.5495 87.0738 -83.4701
lowerback 1.63508 1.9692 -1.70832
upperback 1.96891 2.66333 4.25946
thorax 0.828114 1.32099 5.33019
lowerneck -14.0114 -2.14984 1.2404
upperneck 42.3802 0.5172 -4.04238
head 18.2394 0.579572 -1.79855
rclavicle 2.26615e-014 4.92986e-014
rhumerus -6.16324 -0.401616 -102.104
rradius 21.1892
rwrist -37.6181
rhand -14.0199 -12.7218
rfingers 7.12502
rthumb 12.11 -42.3514
lclavicle 2.26615e-014 4.92986e-014
lhumerus -8.25717 -34.6104 108.52
lradius 23.1358
lwrist 38.1148
lhand -8.65868 72.166
lfingers 7.12502
lthumb -162.725 78.5818
rfemur -30.3388 -2.74761 10.4416
rtibia 31.4815
rfoot -10.4892 -7.87833
rtoes -7.15995
lfemur -29.6536 8.26995 -8.5023
ltibia 32.5081
lfoot -13.6258 -2.97955
ltoes -21.5024
77
root -7.08542 17.6395 1.93658 -67.9707 87.0883 -83.8844
lowerback 1.6687 1.97022 -1.74368
upperback 1.96189 2.66464 4.26295
thorax 0.800225 1.32188 5.3524
lowerneck -13.9784 -2.1458 1.27386
upperneck 42.3637 0.508007 -4.03553
head 18.2194 0.582353 -1.80221
rclavicle -1.19271e-014 -4.77083e-014
rhumerus -6.04743 -0.90865 -102.114
rradius 20.9545
rwrist -37.0074
rhand -13.8891 -12.693
rfingers 7.12502
rthumb 12.2361 -42.3151
lclavicle -1.19271e-014 -4.77083e-014
lhumerus -8.44757 -34.988 108.676
lradius 23.2744
lwrist 38.5309
lhand -8.99854 71.8353
lfingers 7.12502
lthumb -163.052 78.8841
rfemur -30.3301 -2.78092 10.4405
rtibia 31.4865
rfoot -10.454 -7.92275
rtoes -7.83328
lfemur -29.6222 8.26536 -8.5125
ltibia 32.4998
lfoot -13.6357 -2.98054
ltoes -21.4778
78
root -7.08547 17.6384 1.93638 -68.2125 87.1081 -84.1205
lowerback 1.67172 1.93866 -1.79924
upperback 1.9741 2.62215 4.28679
thorax 0.812196 1.29963 5.41005
lowerneck -13.9837 -2.10675 1.26894
upperneck 42.3515 0.571088 -4.0444
head 18.217 0.604431 -1.79378
rclavicle 3.06128e-014 1.27222e-014
rhumerus -5.9257 -1.28943 -102.127
rradius 20.6973
rwrist -36.4531
rhand -13.7417 -12.5301
rfingers 7.12502
rthumb 12.3781 -42.1437
lclavicle 3.06128e-014 1.27222e-014
lhumerus -8.58027 -35.2887 108.789
lradius 23.3979
lwrist 38.8871
lhand -9.31332 71.496
lfingers 7.12502
lthumb -163.355 79.1977
rfemur -30.3282 -2.86873 10.4468
rtibia 31.4856
rfoot -10.3602 -7.93774
rtoes -9.08066
lfemur -29.5956 8.24731 -8.52978
ltibia 32.4948
lfoot -13.6833 -2.91601
ltoes -21.8683
